<svg width="30" height="30" viewBox="0 0 30 30" fill="none" xmlns="http://www.w3.org/2000/svg">
<path d="M1.6527 30C1.19093 29.9992 0.750723 29.8044 0.439487 29.4632C0.122512 29.1248 -0.0349937 28.6671 0.0065481 28.2052L0.409857 23.7692L19.0411 5.13953L24.8635 10.9619L6.23725 29.59L1.80251 29.9934C1.75147 29.9984 1.70044 30 1.6527 30ZM26.0257 9.79778L20.2049 3.97538L23.6964 0.482928C24.0052 0.173733 24.4241 0 24.861 0C25.298 0 25.7169 0.173733 26.0257 0.482928L29.5172 3.97538C29.8263 4.28423 30 4.70333 30 5.14035C30 5.57738 29.8263 5.99648 29.5172 6.30533L26.0273 9.79613L26.0257 9.79778Z" fill="white"/>
</svg>
