           <svg
                width="20"
                height="21"
                viewBox="0 0 20 21"
                fill="none"
                xmlns="http://www.w3.org/2000/svg"
              >
                <path
                  fillRule="evenodd"
                  clipRule="evenodd"
                  d="M9.88609 0.5H14.9254C17.445 0.5 19.5 2.5 19.5 4.94V16.06C19.5 18.51 17.445 20.5 14.9047 20.5H9.87576C7.35611 20.5 5.29083 18.51 5.29083 16.07V11.27H11.6932L10.041 12.87C9.73119 13.17 9.73119 13.66 10.041 13.96C10.1959 14.11 10.4024 14.18 10.6089 14.18C10.8051 14.18 11.0117 14.11 11.1666 13.96L14.1819 11.05C14.3368 10.91 14.4194 10.71 14.4194 10.5C14.4194 10.3 14.3368 10.1 14.1819 9.96L11.1666 7.05C10.8568 6.75 10.3508 6.75 10.041 7.05C9.73119 7.35 9.73119 7.84 10.041 8.14L11.6932 9.73H5.29083V4.95C5.29083 2.5 7.35611 0.5 9.88609 0.5ZM0.5 10.4999C0.5 10.0799 0.855229 9.7299 1.2815 9.7299H5.29052V11.2699H1.2815C0.855229 11.2699 0.5 10.9299 0.5 10.4999Z"
                  fill="black"
                />
              </svg>